<?xml version="1.0" encoding="utf-8"?>
<!-- Generator: Adobe Illustrator 19.1.0, SVG Export Plug-In . SVG Version: 6.00 Build 0)  -->
<svg version="1.1" id="Layer_1" xmlns="http://www.w3.org/2000/svg" xmlns:xlink="http://www.w3.org/1999/xlink" x="0px" y="0px"
	 viewBox="0 0 50 50" style="enable-background:new 0 0 50 50;" xml:space="preserve">
<style type="text/css">
	.st0{fill:#FFFFFF;}
</style>
<g>
	<path class="st0" d="M31.1,45c-0.6,0-1.1,0-1.7-0.1l0,0c-3-0.4-5.8-2.1-7.6-4.7l0,0c-1.4-2-2.1-4.3-2.1-6.5l0,0
		c0-3.6,1.7-7.1,4.9-9.3l0,0c0.9-0.6,1.7-1.4,2.4-2.4l0,0c1.2-1.7,1.8-3.6,1.8-5.5l0,0c0-3.1-1.4-6.1-4.1-7.9l0,0
		c-1.7-1.2-3.6-1.8-5.5-1.8l0,0c-2,0-3.9,0.6-5.6,1.8l0,0c-0.9,0.6-1.7,1.4-2.4,2.4l0,0c-1.2,1.7-1.8,3.6-1.8,5.5l0,0
		c0,3.1,1.4,6.1,4.1,7.9l0,0c3.2,2.2,4.9,5.7,4.9,9.3l0,0c0,2.3-0.7,4.5-2.1,6.5l0,0c-1.9,2.7-4.7,4.3-7.6,4.7l0,0
		c-0.5,0.1-0.9-0.2-1-0.7l0,0c-0.1-0.5,0.2-0.9,0.7-1l0,0c2.5-0.4,4.9-1.8,6.5-4l0,0c1.2-1.7,1.8-3.6,1.8-5.5l0,0
		c0-3.1-1.4-6.1-4.1-7.9l0,0c-3.2-2.2-4.9-5.7-4.9-9.3l0,0c0-2.3,0.7-4.5,2.1-6.5l0,0c0.8-1.1,1.7-2.1,2.8-2.8l0,0
		C14.4,5.7,16.7,5,19,5l0,0c2.3,0,4.5,0.7,6.5,2.1l0,0c3.2,2.2,4.9,5.7,4.9,9.3l0,0c0,2.3-0.7,4.5-2.1,6.5l0,0
		c-0.8,1.1-1.7,2.1-2.8,2.8l0,0c-2.7,1.9-4.1,4.9-4.1,7.9l0,0c0,1.9,0.6,3.9,1.8,5.5l0,0c1.6,2.3,4,3.6,6.5,4l0,0
		c0.5,0.1,1,0.1,1.4,0.1l0,0c1.9,0,3.9-0.6,5.5-1.8l0,0c2.7-1.9,4.1-4.9,4.1-7.9l0,0c0-1.9-0.6-3.9-1.8-5.5l0,0
		c-1.6-2.3-4.1-3.7-6.7-4.1l0,0c-0.5-0.1-0.8-0.5-0.7-0.9l0,0c0.1-0.5,0.5-0.8,0.9-0.7l0,0c3.1,0.4,6,2,7.9,4.8l0,0
		c1.4,2,2.1,4.3,2.1,6.5l0,0c0,3.6-1.7,7.1-4.9,9.3l0,0C35.6,44.3,33.3,45,31.1,45L31.1,45C31.1,45,31.1,45,31.1,45L31.1,45z"/>
</g>
</svg>
